<svg width="150" height="150" viewBox="0 0 150 150" fill="none" xmlns="http://www.w3.org/2000/svg">
<mask id="path-2-inside-1_3110_29418" fill="white">
<path d="M75 4C75 1.79086 76.7922 -0.0111239 78.9982 0.106638C89.4543 0.664811 99.6933 3.40741 109.049 8.17451C119.595 13.5478 128.719 21.3408 135.676 30.9161C142.633 40.4914 147.225 51.5773 149.077 63.2674C150.928 74.9575 149.987 86.9198 146.329 98.1763C142.672 109.433 136.402 119.664 128.033 128.033C119.664 136.402 109.433 142.672 98.1763 146.329C86.9198 149.987 74.9575 150.928 63.2674 149.077C52.8963 147.434 43.0006 143.634 34.2134 137.94C32.3595 136.739 31.9688 134.227 33.2673 132.44L39.586 123.743C40.8845 121.956 43.3791 121.573 45.2541 122.741C51.6314 126.715 58.7525 129.378 66.2006 130.557C74.9681 131.946 83.9398 131.24 92.3822 128.497C100.825 125.754 108.498 121.052 114.775 114.775C121.052 108.498 125.754 100.825 128.497 92.3822C131.24 83.9398 131.946 74.9681 130.557 66.2006C129.169 57.433 125.725 49.1186 120.507 41.9371C115.29 34.7556 108.446 28.9109 100.537 24.8809C93.8179 21.4574 86.4917 19.426 78.9967 18.8922C76.7932 18.7352 75 16.9591 75 14.75V4Z"/>
</mask>
<path d="M75 4C75 1.79086 76.7922 -0.0111239 78.9982 0.106638C89.4543 0.664811 99.6933 3.40741 109.049 8.17451C119.595 13.5478 128.719 21.3408 135.676 30.9161C142.633 40.4914 147.225 51.5773 149.077 63.2674C150.928 74.9575 149.987 86.9198 146.329 98.1763C142.672 109.433 136.402 119.664 128.033 128.033C119.664 136.402 109.433 142.672 98.1763 146.329C86.9198 149.987 74.9575 150.928 63.2674 149.077C52.8963 147.434 43.0006 143.634 34.2134 137.94C32.3595 136.739 31.9688 134.227 33.2673 132.44L39.586 123.743C40.8845 121.956 43.3791 121.573 45.2541 122.741C51.6314 126.715 58.7525 129.378 66.2006 130.557C74.9681 131.946 83.9398 131.24 92.3822 128.497C100.825 125.754 108.498 121.052 114.775 114.775C121.052 108.498 125.754 100.825 128.497 92.3822C131.24 83.9398 131.946 74.9681 130.557 66.2006C129.169 57.433 125.725 49.1186 120.507 41.9371C115.29 34.7556 108.446 28.9109 100.537 24.8809C93.8179 21.4574 86.4917 19.426 78.9967 18.8922C76.7932 18.7352 75 16.9591 75 14.75V4Z" fill="#8B5CF6" stroke="white" stroke-width="4" mask="url(#path-2-inside-1_3110_29418)"/>
<mask id="path-3-inside-2_3110_29418" fill="white">
<path d="M33.2673 132.44C31.9688 134.227 29.4595 134.632 27.744 133.24C16.5264 124.138 8.15223 111.969 3.67077 98.1763C-1.22358 83.113 -1.22359 66.887 3.67075 51.8238C8.56509 36.7605 18.1025 23.6334 30.9161 14.3238C42.6487 5.7995 56.5765 0.876565 71.0016 0.106622C73.2076 -0.0111237 74.9999 1.79086 74.9999 4L74.9999 14.75C74.9999 16.9591 73.2066 18.7352 71.0031 18.8921C60.5408 19.6373 50.4656 23.2964 41.937 29.4928C32.3269 36.475 25.1738 46.3204 21.5031 57.6178C17.8323 68.9153 17.8323 81.0848 21.5031 92.3822C24.7607 102.408 30.7609 111.29 38.7871 118.043C40.4776 119.465 40.8844 121.956 39.5859 123.743L33.2673 132.44Z"/>
</mask>
<path d="M33.2673 132.44C31.9688 134.227 29.4595 134.632 27.744 133.24C16.5264 124.138 8.15223 111.969 3.67077 98.1763C-1.22358 83.113 -1.22359 66.887 3.67075 51.8238C8.56509 36.7605 18.1025 23.6334 30.9161 14.3238C42.6487 5.7995 56.5765 0.876565 71.0016 0.106622C73.2076 -0.0111237 74.9999 1.79086 74.9999 4L74.9999 14.75C74.9999 16.9591 73.2066 18.7352 71.0031 18.8921C60.5408 19.6373 50.4656 23.2964 41.937 29.4928C32.3269 36.475 25.1738 46.3204 21.5031 57.6178C17.8323 68.9153 17.8323 81.0848 21.5031 92.3822C24.7607 102.408 30.7609 111.29 38.7871 118.043C40.4776 119.465 40.8844 121.956 39.5859 123.743L33.2673 132.44Z" fill="#EDE9FE" stroke="white" stroke-width="4" mask="url(#path-3-inside-2_3110_29418)"/>
</svg>
