<svg width="64" height="64" viewBox="0 0 64 64" fill="none" xmlns="http://www.w3.org/2000/svg">
<rect width="64" height="64" rx="4" fill="#F5F3FF"/>
<path d="M47.9994 33.0001C47.9994 33.2653 47.894 33.5197 47.7065 33.7072C47.519 33.8948 47.2646 34.0001 46.9994 34.0001H44.9994V36.0001C44.9994 36.2653 44.894 36.5197 44.7065 36.7072C44.519 36.8948 44.2646 37.0001 43.9994 37.0001C43.7342 37.0001 43.4798 36.8948 43.2923 36.7072C43.1047 36.5197 42.9994 36.2653 42.9994 36.0001V34.0001H40.9994C40.7342 34.0001 40.4798 33.8948 40.2923 33.7072C40.1047 33.5197 39.9994 33.2653 39.9994 33.0001C39.9994 32.7349 40.1047 32.4805 40.2923 32.293C40.4798 32.1055 40.7342 32.0001 40.9994 32.0001H42.9994V30.0001C42.9994 29.7349 43.1047 29.4805 43.2923 29.293C43.4798 29.1055 43.7342 29.0001 43.9994 29.0001C44.2646 29.0001 44.519 29.1055 44.7065 29.293C44.894 29.4805 44.9994 29.7349 44.9994 30.0001V32.0001H46.9994C47.2646 32.0001 47.519 32.1055 47.7065 32.293C47.894 32.4805 47.9994 32.7349 47.9994 33.0001ZM33.9994 35.7101C35.567 34.7337 36.774 33.2734 37.4377 31.55C38.1015 29.8265 38.1858 27.9338 37.6781 26.1582C37.1703 24.3825 36.0981 22.8206 34.6236 21.7086C33.149 20.5966 31.3525 19.9951 29.5056 19.9951C27.6588 19.9951 25.8623 20.5966 24.3877 21.7086C22.9132 22.8206 21.841 24.3825 21.3332 26.1582C20.8255 27.9338 20.9098 29.8265 21.5736 31.55C22.2373 33.2734 23.4443 34.7337 25.0119 35.7101C22.4306 36.5551 20.1081 38.1339 18.2406 40.3564C18.1184 40.5017 18.04 40.6788 18.0148 40.8671C17.9895 41.0553 18.0183 41.2468 18.0979 41.4192C18.1775 41.5917 18.3046 41.7379 18.4642 41.8407C18.6238 41.9436 18.8095 41.9989 18.9994 42.0001H39.9994C40.1899 42.0003 40.3766 41.9461 40.5373 41.8437C40.6981 41.7414 40.8263 41.5953 40.9068 41.4226C40.9873 41.2499 41.0168 41.0578 40.9918 40.8689C40.9668 40.68 40.8883 40.5022 40.7656 40.3564C38.8969 38.1339 36.5744 36.5551 33.9994 35.7101Z" fill="#8B5CF6"/>
</svg>
