<svg width="77" height="61" viewBox="0 0 77 61" fill="none" xmlns="http://www.w3.org/2000/svg">
<path d="M75.979 38.5189V38.4845C75.9731 38.4587 75.965 38.4334 75.955 38.4089C75.7268 37.7863 75.4616 37.1779 75.1609 36.587L60.8712 4.10948C60.7336 3.79665 60.539 3.51221 60.2972 3.27073C59.2757 2.24902 58.0629 1.43854 56.7282 0.885578C55.3934 0.332619 53.9628 0.0480129 52.5181 0.0480129C51.0733 0.0480129 49.6427 0.332619 48.308 0.885578C46.9732 1.43854 45.7605 2.24902 44.739 3.27073C44.2251 3.78521 43.9359 4.48229 43.9347 5.20948V13.8032H32.9347V5.20948C32.9349 4.84823 32.864 4.49048 32.726 4.15664C32.588 3.8228 32.3856 3.51943 32.1303 3.26385C31.1088 2.24214 29.8961 1.43166 28.5613 0.878703C27.2266 0.325744 25.796 0.0411377 24.3512 0.0411377C22.9065 0.0411377 21.4759 0.325744 20.1411 0.878703C18.8064 1.43166 17.5936 2.24214 16.5722 3.26385C16.3303 3.50534 16.1357 3.78978 15.9981 4.1026L1.72215 36.587C1.42144 37.1779 1.15628 37.7863 0.928091 38.4089C0.918528 38.4324 0.910491 38.4565 0.904029 38.481C0.904029 38.481 0.904029 38.5085 0.904029 38.5189C-0.515696 42.621 -0.261694 47.1174 1.61099 51.0335C3.48367 54.9497 6.82416 57.9701 10.9085 59.4403C14.9929 60.9104 19.492 60.7118 23.431 58.8875C27.3699 57.0631 30.4312 53.7601 31.9515 49.6942C32.6209 47.8678 32.9585 45.9365 32.9484 43.9914V19.3032H43.9484V43.9948C43.9383 45.9399 44.2759 47.8712 44.9453 49.6976C46.4656 53.7635 49.5269 57.0666 53.4659 58.8909C57.4048 60.7152 61.9039 60.9138 65.9883 59.4437C70.0726 57.9736 73.4131 54.9531 75.2858 51.037C77.1585 47.1208 77.4125 42.6244 75.9928 38.5223L75.979 38.5189ZM26.7712 47.8001C25.7557 50.5097 23.7135 52.71 21.0869 53.9243C18.4604 55.1386 15.4612 55.2691 12.7391 54.2874C10.0171 53.3058 7.79149 51.2911 6.54456 48.6799C5.29762 46.0687 5.12981 43.0714 6.07747 40.3373L6.69965 38.9176C7.84322 36.7439 9.68139 35.0154 11.9213 34.0076C14.1612 32.9998 16.674 32.7707 19.0592 33.3567C21.4445 33.9428 23.565 35.3102 25.0828 37.2413C26.6007 39.1723 27.4286 41.5558 27.4347 44.012V44.0532C27.4345 45.3359 27.2099 46.6086 26.7712 47.8139V47.8001ZM64.2159 54.3898C62.5531 54.9985 60.768 55.1967 59.0122 54.9678C57.2564 54.7388 55.5818 54.0894 54.1308 53.0746C52.6797 52.0599 51.4951 50.7099 50.6775 49.1393C49.8599 47.5687 49.4335 45.8239 49.4347 44.0532V44.0154C49.4437 41.5604 50.2738 39.179 51.7928 37.2503C53.3117 35.3216 55.4322 33.9565 57.8167 33.3722C60.2012 32.7879 62.7126 33.0181 64.9511 34.0262C67.1897 35.0342 69.0266 36.7621 70.1697 38.9348L70.7918 40.3545C71.7699 43.0882 71.6275 46.0978 70.3957 48.727C69.1638 51.3562 66.9425 53.3918 64.2159 54.3898Z" fill="#8B5CF6"/>
</svg>
