<svg width="64" height="64" viewBox="0 0 64 64" fill="none" xmlns="http://www.w3.org/2000/svg">
<rect width="64" height="64" rx="4" fill="#F5F3FF"/>
<path d="M36.5592 40.4539C36.6576 40.6047 36.7134 40.7794 36.7207 40.9594C36.7281 41.1394 36.6866 41.318 36.6009 41.4764C36.5151 41.6348 36.3881 41.767 36.2333 41.8592C36.0786 41.9514 35.9018 42.0001 35.7217 42.0001H17.2792C17.099 42.0001 16.9223 41.9514 16.7675 41.8592C16.6128 41.767 16.4858 41.6348 16.4 41.4764C16.3142 41.318 16.2728 41.1394 16.2801 40.9594C16.2875 40.7794 16.3433 40.6047 16.4417 40.4539C17.8493 38.2872 19.9198 36.6337 22.3442 35.7401C21.0039 34.8479 19.9864 33.548 19.442 32.0327C18.8977 30.5174 18.8555 28.8671 19.3215 27.326C19.7876 25.7848 20.7373 24.4346 22.0301 23.4749C23.323 22.5152 24.8903 21.9971 26.5004 21.9971C28.1105 21.9971 29.6779 22.5152 30.9707 23.4749C32.2635 24.4346 33.2132 25.7848 33.6793 27.326C34.1454 28.8671 34.1031 30.5174 33.5588 32.0327C33.0145 33.548 31.9969 34.8479 30.6567 35.7401C33.0811 36.6337 35.1515 38.2872 36.5592 40.4539ZM47.5479 40.4351C46.1399 38.2775 44.0741 36.6311 41.6567 35.7401C43.2389 34.6743 44.3555 33.0456 44.7792 31.1855C45.203 29.3255 44.9019 27.3738 43.9374 25.7279C42.9729 24.082 41.4175 22.8654 39.5876 22.3259C37.7578 21.7864 35.7911 21.9645 34.0879 22.8239C34.0228 22.8575 33.9659 22.905 33.9211 22.9631C33.8764 23.0212 33.845 23.0884 33.8292 23.1599C33.8133 23.2315 33.8134 23.3057 33.8294 23.3772C33.8453 23.4487 33.8769 23.5159 33.9217 23.5739C35.1881 25.1536 35.9155 27.0974 35.9971 29.1205C36.0788 31.1436 35.5105 33.1397 34.3754 34.8164C34.3021 34.9259 34.275 35.0601 34.3 35.1895C34.3251 35.319 34.4002 35.4333 34.5092 35.5076C35.989 36.5405 37.2559 37.8489 38.2404 39.3614C38.6375 39.9694 38.7997 40.7012 38.6967 41.4201C38.6851 41.4916 38.6892 41.5648 38.7087 41.6346C38.7281 41.7044 38.7625 41.7691 38.8095 41.8242C38.8565 41.8794 38.9149 41.9237 38.9806 41.9541C39.0464 41.9844 39.118 42.0001 39.1904 42.0001H46.7279C46.9481 42.0002 47.1622 41.9276 47.3369 41.7935C47.5116 41.6595 47.6372 41.4716 47.6942 41.2589C47.7289 41.119 47.7339 40.9733 47.7087 40.8314C47.6835 40.6895 47.6287 40.5545 47.5479 40.4351Z" fill="#8B5CF6"/>
</svg>
