<svg width="64" height="64" viewBox="0 0 64 64" fill="none" xmlns="http://www.w3.org/2000/svg">
<rect width="64" height="64" rx="4" fill="#F5F3FF"/>
<path d="M45.9665 42.0004H44.0002V28.0004C44.0002 27.47 43.7895 26.9612 43.4145 26.5862C43.0394 26.2111 42.5307 26.0004 42.0002 26.0004H36.5002C36.3676 26.0004 36.2405 26.0531 36.1467 26.1468C36.0529 26.2406 36.0002 26.3678 36.0002 26.5004V42.0004H34.0002V20.0516C34.0036 19.7401 33.9359 19.4319 33.8025 19.1504C33.6691 18.8689 33.4734 18.6214 33.2302 18.4266C32.8987 18.1682 32.4942 18.0207 32.0742 18.0053C31.6541 17.9898 31.2399 18.107 30.8902 18.3404L20.8902 25.0004C20.6159 25.1834 20.3911 25.4314 20.2358 25.7224C20.0805 26.0133 19.9996 26.3381 20.0002 26.6679V42.0004H18.034C17.7756 41.9966 17.5253 42.0908 17.3335 42.264C17.1417 42.4372 17.0226 42.6767 17.0002 42.9341C16.9912 43.0709 17.0103 43.2081 17.0565 43.3372C17.1026 43.4663 17.1749 43.5845 17.2686 43.6845C17.3624 43.7845 17.4758 43.8641 17.6016 43.9185C17.7275 43.9728 17.8632 44.0007 18.0002 44.0004H46.0002C46.1373 44.0007 46.273 43.9728 46.3989 43.9185C46.5247 43.8641 46.6381 43.7845 46.7318 43.6845C46.8256 43.5845 46.8978 43.4663 46.944 43.3372C46.9902 43.2081 47.0093 43.0709 47.0002 42.9341C46.9778 42.6767 46.8588 42.4372 46.667 42.264C46.4752 42.0908 46.2249 41.9966 45.9665 42.0004ZM25.5002 39.0004C25.5005 39.1375 25.4727 39.2732 25.4183 39.399C25.364 39.5249 25.2843 39.6382 25.1843 39.732C25.0843 39.8258 24.9661 39.898 24.8371 39.9442C24.708 39.9903 24.5708 40.0095 24.434 40.0004C24.1763 39.978 23.9367 39.8587 23.7634 39.6667C23.5901 39.4746 23.4961 39.224 23.5002 38.9654V37.0341C23.4967 36.7758 23.591 36.5257 23.7642 36.334C23.9374 36.1422 24.1766 36.0231 24.434 36.0004C24.5708 35.9913 24.708 36.0104 24.8371 36.0566C24.9661 36.1028 25.0843 36.175 25.1843 36.2688C25.2843 36.3626 25.364 36.4759 25.4183 36.6018C25.4727 36.7276 25.5005 36.8633 25.5002 37.0004V39.0004ZM25.5002 32.0004C25.5005 32.1375 25.4727 32.2732 25.4183 32.399C25.364 32.5249 25.2843 32.6382 25.1843 32.732C25.0843 32.8258 24.9661 32.898 24.8371 32.9442C24.708 32.9903 24.5708 33.0095 24.434 33.0004C24.1764 32.9777 23.937 32.8583 23.7638 32.6664C23.5905 32.4744 23.4964 32.2239 23.5002 31.9654V30.0341C23.4967 29.7758 23.591 29.5257 23.7642 29.334C23.9374 29.1422 24.1766 29.0231 24.434 29.0004C24.5708 28.9913 24.708 29.0104 24.8371 29.0566C24.9661 29.1028 25.0843 29.175 25.1843 29.2688C25.2843 29.3626 25.364 29.4759 25.4183 29.6018C25.4727 29.7276 25.5005 29.8633 25.5002 30.0004V32.0004ZM30.5002 39.0004C30.5005 39.1375 30.4727 39.2732 30.4183 39.399C30.364 39.5249 30.2843 39.6382 30.1843 39.732C30.0843 39.8258 29.9661 39.898 29.8371 39.9442C29.708 39.9903 29.5708 40.0095 29.434 40.0004C29.1767 39.978 28.9375 39.8591 28.7643 39.6676C28.5911 39.4761 28.4967 39.2261 28.5002 38.9679V37.0341C28.497 36.776 28.5915 36.5262 28.7646 36.3348C28.9378 36.1433 29.1769 36.0243 29.434 36.0016C29.5708 35.9926 29.708 36.0117 29.8371 36.0579C29.9661 36.104 30.0843 36.1763 30.1843 36.27C30.2843 36.3638 30.364 36.4772 30.4183 36.603C30.4727 36.7289 30.5005 36.8646 30.5002 37.0016V39.0004ZM30.5002 32.0004C30.5005 32.1375 30.4727 32.2732 30.4183 32.399C30.364 32.5249 30.2843 32.6382 30.1843 32.732C30.0843 32.8258 29.9661 32.898 29.8371 32.9442C29.708 32.9903 29.5708 33.0095 29.434 33.0004C29.1769 32.9777 28.9378 32.8587 28.7646 32.6673C28.5915 32.4758 28.497 32.226 28.5002 31.9679V30.0341C28.497 29.776 28.5915 29.5262 28.7646 29.3348C28.9378 29.1433 29.1769 29.0243 29.434 29.0016C29.5708 28.9926 29.708 29.0117 29.8371 29.0579C29.9661 29.104 30.0843 29.1763 30.1843 29.27C30.2843 29.3638 30.364 29.4772 30.4183 29.603C30.4727 29.7289 30.5005 29.8646 30.5002 30.0016V32.0004Z" fill="#8B5CF6"/>
</svg>
