<svg width="14" height="14" viewBox="0 0 14 14" fill="none" xmlns="http://www.w3.org/2000/svg">
<g clip-path="url(#clip0_2726_29553)">
<path d="M9.91602 1.75094C10.0646 1.57538 10.2483 1.43247 10.4556 1.33134C10.6629 1.2302 10.8891 1.17305 11.1198 1.16353C11.3505 1.15401 11.5807 1.19233 11.7957 1.27604C12.0107 1.35975 12.2058 1.48703 12.3685 1.64974C12.5312 1.81246 12.658 2.00706 12.7408 2.22113C12.8236 2.4352 12.8606 2.66405 12.8494 2.8931C12.8382 3.12214 12.779 3.34635 12.6757 3.55144C12.5724 3.75653 12.4272 3.93799 12.2493 4.08427L4.37435 11.9593L1.16602 12.8343L2.04102 9.62594L9.91602 1.75094Z" stroke="white" stroke-linecap="round" stroke-linejoin="round"/>
<path d="M8.75 2.91602L11.0833 5.24935" stroke="white" stroke-linecap="round" stroke-linejoin="round"/>
</g>
<defs>
<clipPath id="clip0_2726_29553">
<rect width="14" height="14" fill="white"/>
</clipPath>
</defs>
</svg>
