<svg width="12" height="7" viewBox="0 0 12 7" fill="none" xmlns="http://www.w3.org/2000/svg">
<path d="M0.53773 0.808357C0.575555 0.716987 0.639626 0.638885 0.721839 0.583928C0.804051 0.528971 0.900715 0.499627 0.999605 0.499607H10.9996C11.0986 0.499529 11.1953 0.528811 11.2776 0.583746C11.3599 0.638682 11.424 0.7168 11.4619 0.808212C11.4998 0.899623 11.5097 1.00022 11.4904 1.09726C11.471 1.1943 11.4234 1.28343 11.3534 1.35336L6.35336 6.35336C6.30692 6.39985 6.25177 6.43672 6.19108 6.46189C6.13038 6.48705 6.06531 6.5 5.99961 6.5C5.9339 6.5 5.86883 6.48705 5.80814 6.46189C5.74744 6.43672 5.69229 6.39985 5.64586 6.35336L0.645855 1.35336C0.575952 1.28339 0.528367 1.19427 0.509121 1.09726C0.489874 1.00025 0.499831 0.899708 0.53773 0.808357Z" fill="#F87171"/>
</svg>
