<svg width="20" height="20" viewBox="0 0 20 20" fill="none" xmlns="http://www.w3.org/2000/svg">
<path d="M12.6673 16V14.6667C12.6673 13.9594 12.3864 13.2811 11.8863 12.781C11.3862 12.281 10.7079 12 10.0007 12H6.00065C5.29341 12 4.61513 12.281 4.11503 12.781C3.61494 13.2811 3.33398 13.9594 3.33398 14.6667V16" stroke="#1F2937" stroke-linecap="round" stroke-linejoin="round"/>
<path d="M8.00065 9.33333C9.47341 9.33333 10.6673 8.13943 10.6673 6.66667C10.6673 5.19391 9.47341 4 8.00065 4C6.52789 4 5.33398 5.19391 5.33398 6.66667C5.33398 8.13943 6.52789 9.33333 8.00065 9.33333Z" stroke="#1F2937" stroke-linecap="round" stroke-linejoin="round"/>
<path d="M16.666 16V14.6667C16.6656 14.0758 16.4689 13.5019 16.1069 13.0349C15.7449 12.5679 15.2381 12.2344 14.666 12.0867" stroke="#1F2937" stroke-linecap="round" stroke-linejoin="round"/>
<path d="M12.666 4.08667C13.2396 4.23354 13.748 4.56714 14.1111 5.03488C14.4742 5.50262 14.6712 6.07789 14.6712 6.67C14.6712 7.26212 14.4742 7.83739 14.1111 8.30513C13.748 8.77287 13.2396 9.10647 12.666 9.25334" stroke="#1F2937" stroke-linecap="round" stroke-linejoin="round"/>
</svg>
