<svg width="62" height="72" viewBox="0 0 62 72" fill="none" xmlns="http://www.w3.org/2000/svg">
<path d="M55.75 0.25H6.25C4.79131 0.25 3.39236 0.829462 2.36091 1.86091C1.32946 2.89236 0.75 4.29131 0.75 5.75V66.25C0.75 67.7087 1.32946 69.1076 2.36091 70.1391C3.39236 71.1705 4.79131 71.75 6.25 71.75H55.75C57.2087 71.75 58.6076 71.1705 59.6391 70.1391C60.6705 69.1076 61.25 67.7087 61.25 66.25V5.75C61.25 4.29131 60.6705 2.89236 59.6391 1.86091C58.6076 0.829462 57.2087 0.25 55.75 0.25ZM20 8.5H42C42.7293 8.5 43.4288 8.78973 43.9445 9.30546C44.4603 9.82118 44.75 10.5207 44.75 11.25C44.75 11.9793 44.4603 12.6788 43.9445 13.1945C43.4288 13.7103 42.7293 14 42 14H20C19.2707 14 18.5712 13.7103 18.0555 13.1945C17.5397 12.6788 17.25 11.9793 17.25 11.25C17.25 10.5207 17.5397 9.82118 18.0555 9.30546C18.5712 8.78973 19.2707 8.5 20 8.5ZM49.1534 60.2C48.8644 60.4172 48.5354 60.5753 48.1852 60.6652C47.8351 60.7552 47.4706 60.7751 47.1127 60.7241C46.7548 60.673 46.4104 60.5518 46.0994 60.3675C45.7884 60.1832 45.5167 59.9394 45.3 59.65C43.635 57.43 41.476 55.6281 38.9939 54.3871C36.5119 53.1461 33.775 52.5 31 52.5C28.225 52.5 25.4881 53.1461 23.0061 54.3871C20.524 55.6281 18.365 57.43 16.7 59.65C16.4833 59.9389 16.2119 60.1823 15.9011 60.3663C15.5904 60.5503 15.2464 60.6713 14.8889 60.7224C14.5314 60.7734 14.1673 60.7536 13.8175 60.664C13.4677 60.5743 13.1389 60.4167 12.85 60.2C12.5611 59.9833 12.3177 59.7119 12.1337 59.4011C11.9497 59.0904 11.8287 58.7464 11.7776 58.3889C11.7266 58.0314 11.7464 57.6673 11.836 57.3175C11.9257 56.9677 12.0833 56.6389 12.3 56.35C14.7351 53.0853 17.9823 50.5148 21.7188 48.8941C19.6711 47.0245 18.2364 44.5796 17.6031 41.8802C16.9698 39.1807 17.1675 36.3529 18.1701 33.7678C19.1727 31.1826 20.9334 28.961 23.2212 27.3945C25.509 25.8279 28.2169 24.9896 30.9897 24.9896C33.7624 24.9896 36.4704 25.8279 38.7582 27.3945C41.046 28.961 42.8067 31.1826 43.8093 33.7678C44.8119 36.3529 45.0095 39.1807 44.3762 41.8802C43.7429 44.5796 42.3083 47.0245 40.2606 48.8941C44.0046 50.5117 47.2592 53.0824 49.7 56.35C50.138 56.9331 50.3264 57.6662 50.2239 58.3882C50.1214 59.1102 49.7364 59.7619 49.1534 60.2ZM39.25 38.75C39.25 40.3817 38.7661 41.9767 37.8596 43.3335C36.9531 44.6902 35.6646 45.7476 34.1571 46.372C32.6496 46.9964 30.9908 47.1598 29.3905 46.8415C27.7902 46.5232 26.3202 45.7374 25.1664 44.5836C24.0126 43.4298 23.2268 41.9598 22.9085 40.3595C22.5902 38.7592 22.7536 37.1004 23.378 35.5929C24.0024 34.0854 25.0598 32.7969 26.4165 31.8904C27.7733 30.9839 29.3683 30.5 31 30.5C33.188 30.5 35.2865 31.3692 36.8336 32.9164C38.3808 34.4635 39.25 36.562 39.25 38.75Z" fill="#52525B"/>
</svg>
